<svg xmlns="http://www.w3.org/2000/svg" xmlns:xlink="http://www.w3.org/1999/xlink" width="16" height="16" viewBox="0 0 16 16">
  <defs>
    <path id="arrow-downç-a" d="M7.295,0.705 C6.9055372,1.0944628 6.90525458,1.72581956 7.29436856,2.11563087 L12.17,7 L12.17,7 L1,7 C0.44771525,7 -6.76353751e-17,7.44771525 0,8 C6.76353751e-17,8.55228475 0.44771525,9 1,9 L12.17,9 L12.17,9 L7.29436856,13.8843691 C6.90525458,14.2741804 6.9055372,14.9055372 7.295,15.295 C7.68436075,15.6843607 8.31563925,15.6843607 8.705,15.295 L16,8 L16,8 L8.705,0.705 C8.31563925,0.315639251 7.68436075,0.315639251 7.295,0.705 Z"/>
  </defs>
  <use fill="#CA423B" fill-rule="evenodd" opacity=".288" transform="rotate(90 8 8)" xlink:href="#arrow-downç-a"/>
</svg>
