<svg xmlns="http://www.w3.org/2000/svg" width="101" height="101" viewBox="0 0 101 101">
  <path fill="#FFF" d="M4.82400958,93.5447785 C5.55071571,92.8184382 6.72840382,92.8184382 7.45510994,93.5445925 C8.18163002,94.2713049 8.18163002,95.4493754 7.45510994,96.1759018 L7.45510994,96.1759018 L3.17599042,100.455059 C2.81263736,100.818229 2.3365388,101 1.86044024,101 C1.38434168,101 0.908243119,100.818415 0.544890057,100.455245 C-0.181630019,99.7285323 -0.181630019,98.5504618 0.544890057,97.8239354 L0.544890057,97.8239354 Z M27,97 C27.526,97 28.042,97.214 28.4138,97.586 C28.786,97.958 29,98.472 29,99 C29,99.526 28.7858,100.042 28.4138,100.414 C28.042,100.786 27.526,101 27,101 C26.474,101 25.958,100.786 25.586,100.414 C25.2138,100.042 25,99.526 25,99 C25,98.472 25.214,97.958 25.586,97.586 C25.958,97.214 26.4718,97 27,97 Z M40.5585891,82.5904334 C41.3466315,81.8031889 42.6227401,81.8031889 43.409573,82.5904334 C44.196809,83.3776779 44.196809,84.6542035 43.409573,85.4414481 L43.409573,85.4414481 L33.4414109,95.4095162 C33.0476921,95.8030377 32.5318055,96 32.015919,96 C31.5000324,96 30.9841458,95.8032393 30.590427,95.4095162 C29.803191,94.6222717 29.803191,93.3457461 30.590427,92.5585015 L30.590427,92.5585015 Z M73.5652168,81.5891348 C74.3511379,80.8036217 75.6247889,80.8036217 76.4107101,81.5891348 C77.19643,82.3750503 77.19643,83.6490946 76.4107101,84.4348089 L76.4107101,84.4348089 L66.4347832,94.410664 C66.0418227,94.8034205 65.5269296,95 65.0120366,95 C64.4971436,95 63.9822505,94.8034205 63.5892899,94.410664 C62.80357,93.6247485 62.80357,92.3507042 63.5892899,91.5649899 L63.5892899,91.5649899 Z M29.6866324,68.5684297 C30.4449218,67.8105234 31.6734787,67.8105234 32.4315741,68.5684297 C33.1894753,69.32653 33.1894753,70.5554833 32.4315741,71.3131954 L32.4315741,71.3131954 L14.3133676,89.4315218 C13.9343199,89.810572 13.4376569,90 12.9409938,90 C12.4443307,90 11.9476677,89.810572 11.5684259,89.4317159 C10.8105247,88.6736155 10.8105247,87.4446623 11.5684259,86.686756 L11.5684259,86.686756 Z M98.0347195,0.275291445 C98.6419241,-0.0861476494 99.3957224,-0.0920793632 100.008626,0.259868989 C100.621529,0.611619617 101,1.26727172 101,1.97729786 L101,1.97729786 L101,79.6827486 C101,80.3095331 100.704454,80.8993431 100.20356,81.2722502 C99.8612458,81.5271162 99.4505476,81.6599866 99.0347402,81.6599866 C98.842164,81.6599866 98.6486053,81.6313166 98.4599592,81.5733835 L98.4599592,81.5733835 L71.1837021,73.1768449 L56.6827143,87.4366849 C56.3083697,87.8050443 55.8125843,88 55.3089386,88 C55.0519083,88 54.7931095,87.949185 54.546887,87.8449845 C54.1534814,87.6785011 53.8380887,87.3900221 53.6276304,87.0368874 C53.6136785,87.0188945 53.6001195,86.9987267 53.5869536,86.9748021 L53.5869536,86.9748021 L40.9757671,63.8780927 L12.3901884,55.078593 C11.6458224,54.8494311 11.1060195,54.1997107 11.0138581,53.4216676 C10.9216966,52.6436244 11.2948621,51.8845628 11.9649487,51.4857539 L11.9649487,51.4857539 L47.0372013,30.6181825 C47.9713923,30.0621832 49.1765656,30.3739936 49.7287484,31.3137748 C50.2811277,32.2537537 49.9716302,33.466196 49.0374392,34.0221953 L49.0374392,34.0221953 L17.799811,52.6082319 L41.7358536,59.9766068 L89.8614319,9.73242048 L64.0243871,25.1052477 C63.0899996,25.6608515 61.8850228,25.3494366 61.33284,24.4096554 C60.7804607,23.4696765 61.0899582,22.2572342 62.0241492,21.7014326 L62.0241492,21.7014326 Z M57.2745913,68.8953339 L57.2745913,81.3256356 L66.9014363,71.8588181 L57.2745913,68.8953339 Z M82.8396714,22.762023 L44.7329681,62.5460275 L53.3444648,78.3174658 L53.3444648,66.2225037 C53.3444648,65.8201358 53.4664952,65.4274563 53.6940496,65.0966644 L53.6940496,65.0966644 L82.8396714,22.762023 Z M97.0698735,9.03682817 L58.4565769,65.1237526 L97.0698735,77.0101161 L97.0698735,9.03682817 Z M55,26 C55.526,26 56.042,26.214 56.414,26.586 C56.786,26.958 57,27.474 57,28.002 C57,28.528 56.7858,29.042 56.414,29.414 C56.042,29.788 55.526,30 55,30 C54.474,30 53.958,29.788 53.586,29.414 C53.214,29.042 53,28.528 53,28.002 C53,27.474 53.2142,26.958 53.586,26.586 C53.958,26.214 54.474,26 55,26 Z"/>
</svg>
