<svg xmlns="http://www.w3.org/2000/svg" width="23" height="23" viewBox="0 0 23 23">
  <path fill="#FFF" fill-rule="evenodd" d="M23,11.2041282 C23,17.391561 17.9450549,22.4075064 11.7081227,22.4075064 C9.72889425,22.4075064 7.86966446,21.9012619 6.25118205,21.0147716 L0,23 L2.03772785,16.9873154 C1.01023902,15.2998337 0.418495451,13.3183552 0.418495451,11.2033782 C0.419245443,5.01594548 5.47269051,0 11.7096227,0 C17.9458049,0.0014999837 23,5.01669547 23,11.2041282 Z M11.4992492,2 C6.26100173,2 2,6.26206402 2,11.501513 C2,13.5803472 2.67251322,15.5048575 3.809631,17.0707915 L2.62372599,20.5983039 L6.27301089,19.429527 C7.77415647,20.4220417 9.57027716,21 11.4992492,21 C16.7374967,21 21,16.7386925 21,11.4992435 C21.0015007,6.26206402 16.7382473,2 11.4992492,2 Z M16.9602035,13.3947015 C16.8912668,13.2858074 16.710858,13.2194614 16.4409781,13.0867692 C16.1718316,12.9540771 14.8392997,12.3158568 14.5921542,12.2293185 C14.3428087,12.1406167 14.1623998,12.0959052 13.981991,12.3605683 C13.8037823,12.6252314 13.2845568,13.2194614 13.1254157,13.396865 C12.9677413,13.5735474 12.8100669,13.5959032 12.5394537,13.4653745 C12.2688404,13.3312401 11.396131,13.0543174 10.3620803,12.1550397 C9.55757427,11.4540791 9.01414765,10.5908592 8.85720662,10.3261961 C8.6980655,10.0622541 8.8410725,9.91946584 8.97527908,9.78821602 C9.096285,9.6692258 9.24589233,9.47956259 9.38156564,9.32451472 C9.51723896,9.17090916 9.56197448,9.06201508 9.6521789,8.88533263 C9.74091658,8.70865017 9.69618105,8.55504461 9.62944445,8.42163133 C9.56197448,8.28893921 9.02148134,6.99086404 8.79487024,6.46225899 C8.56972588,5.93437509 8.34458151,6.02163459 8.18617375,6.02163459 C8.02849936,6.02163459 7.84809053,6 7.66768169,6 C7.48727285,6 7.19392515,6.06418261 6.94677971,6.32884571 C6.69963427,6.59350881 6,7.2317291 6,8.53124657 C6,9.83220634 6.96878079,11.0862912 7.1044541,11.2622525 C7.24086078,11.4374926 8.97747918,14.1915754 11.7283473,15.2487855 C14.4806821,16.3052745 14.4806821,15.9526307 14.9764397,15.9079193 C15.4736641,15.8632078 16.5781182,15.269699 16.8025292,14.6538344 C17.0284069,14.0350853 17.0284069,13.5050379 16.9602035,13.3947015 Z"/>
</svg>
