<svg xmlns="http://www.w3.org/2000/svg" width="57" height="57" viewBox="0 0 57 57">
  <g fill="none">
    <path fill="#E5E5E5" d="M1.21812791,57 C0.896663878,57 0.583935285,56.8734512 0.352009555,56.6399231 C0.0462691988,56.3320312 -0.0716591253,55.8849792 0.0432118802,55.4670639 L3.76494417,41.9354782 C1.44786992,37.7637177 0.226219283,33.0444488 0.227966258,28.2538604 C0.234517863,12.6744461 12.9681623,0 28.6142009,0 C36.2031106,0.00304413398 43.3338467,2.94628146 48.6934731,8.28655246 C54.052226,13.6272583 57.0021826,20.7266006 57,28.2764741 C56.9930104,43.8563232 44.259366,56.5316391 28.6142009,56.5316391 C28.6142009,56.5316391 28.6024081,56.5316391 28.6019713,56.5316391 C24.0320283,56.5298996 19.5013945,55.4209671 15.4673704,53.3205185 L1.52692558,56.9604263 C1.42472104,56.9869537 1.3207693,57 1.21812791,57 Z"/>
    <path fill="#FFF" d="M1,56 L4.81425617,42.1344606 C2.46146871,38.0763064 1.22391038,33.4729629 1.22563942,28.7568808 C1.23169099,14.0032034 13.2925904,2 28.1130331,2 C35.3049636,2.00301212 42.0555573,4.7896314 47.1320106,9.84737115 C52.2080318,14.905111 55.0025882,21.6281097 55,28.7783958 C54.9935108,43.531643 42.9308824,55.5365675 28.1130331,55.5365675 C28.1121687,55.5365675 28.1134654,55.5365675 28.1130331,55.5365675 L28.1013622,55.5365675 C23.6015427,55.5348462 19.1803945,54.4113344 15.2533186,52.2792006 L1,56 Z M15.9133785,47.4353196 L16.7299164,47.9168246 C20.1603263,49.9435351 24.0934539,51.0154111 28.1043879,51.0175626 L28.1130331,51.0175626 C40.42983,51.0175626 50.454788,41.0397788 50.4599766,28.7766746 C50.4621364,22.8338088 48.1400394,17.2455098 43.9207562,13.0419143 C39.7010408,8.83831896 34.0907472,6.52201696 28.1212461,6.51943522 C15.7945073,6.51943522 5.76998154,16.4959281 5.76522477,28.758602 C5.76349762,32.9609065 6.94443007,37.0530543 9.18180427,40.5944188 L9.71348328,41.4360846 L7.45536063,49.6427558 L15.9133785,47.4353196 Z"/>
    <path fill="#64B161" d="M2,55 L5.74390112,41.390615 C3.43401215,37.4078498 2.2197383,32.8891787 2.22105675,28.2611391 C2.22676992,13.780743 14.0649509,2 28.6103077,2 C35.6700597,2.00306235 42.2960482,4.73815108 47.2775153,9.70217091 C52.260301,14.6661907 55.0026349,21.2646142 55,28.2817005 C54.9938454,42.7625341 43.155225,54.5445894 28.611626,54.5445894 C28.6103077,54.5445894 28.6120655,54.5445894 28.611626,54.5445894 L28.5997603,54.5445894 C24.1834599,54.5428395 19.8436285,53.4395295 15.9894189,51.3484028 L2,55 Z"/>
    <g fill="#FFF" transform="translate(1 1)">
      <path d="M0.100611871,54.9000016 L3.97746514,40.829046 C1.58606526,36.7107707 0.328196922,32.0392293 0.329954335,27.2532791 C0.336105225,12.2810277 12.5949403,0.0999983841 27.6586065,0.0999983841 C34.9685663,0.103055132 41.8299463,2.93095783 46.9897111,8.06362736 C52.1490366,13.196297 54.9894555,20.0188961 54.9868212,27.2751127 C54.9802291,42.2469274 42.7196367,54.4297034 27.6586065,54.4297034 C27.6577279,54.4297034 27.6590458,54.4297034 27.6586065,54.4297034 L27.646744,54.4297034 C23.0730764,54.4279566 18.5793712,53.2878001 14.5878467,51.124079 L0.100611871,54.9000016 Z M15.2587391,46.2084366 L16.0886775,46.697075 C19.5753851,48.753811 23.5730605,49.8415667 27.6498194,49.84375 L27.6586065,49.84375 C40.1775387,49.84375 50.3670198,39.7181466 50.3722935,27.273366 C50.3744888,21.2424575 48.014283,15.5713685 43.7257557,11.3054973 C39.436789,7.03962618 33.734423,4.68900846 27.6669542,4.68638847 C15.137917,4.68638847 4.94887526,14.8106818 4.94404041,27.2550258 C4.94228493,31.5195868 6.14259807,35.6723593 8.4166906,39.2661887 L8.95709518,40.1203236 L6.66191369,48.4485756 L15.2587391,46.2084366 Z"/>
      <path d="M20.8284206,15.9014942 C20.3170134,14.7713812 19.7783662,14.7486741 19.2915628,14.7290237 C18.8935088,14.7119935 18.4378995,14.7128592 17.9831688,14.7128592 C17.5279988,14.7128592 16.7881279,14.8831698 16.1624888,15.5621984 C15.5364103,16.2412268 13.7719676,17.8831221 13.7719676,21.2223704 C13.7719676,24.5620554 16.2191654,27.7886417 16.5605429,28.2419096 C16.9019204,28.6947409 21.2844692,35.7662442 28.2249328,38.4867251 C33.993202,40.7478245 35.1667145,40.2980501 36.4188714,40.1849514 C37.6710283,40.0718528 40.4587248,38.5430561 41.0276873,36.9583651 C41.5970891,35.3736741 41.5970891,34.015617 41.4261806,33.7313422 C41.2552722,33.4488139 40.8001022,33.2789475 40.1173473,32.9396516 C39.4345923,32.6003557 36.077494,30.9580237 35.4514155,30.7318264 C34.8253371,30.5051924 34.3701671,30.3925305 33.9149971,31.0719957 C33.4593878,31.7505876 32.1518724,33.2789475 31.753379,33.7313422 C31.3548857,34.1850467 30.9563922,34.2418144 30.2736372,33.9020817 C29.5908822,33.5619124 27.3914797,32.8457666 24.7826,30.5335763 C22.7527879,28.7349149 21.3820057,26.5131161 20.9835123,25.8336509 C20.5854583,25.1550591 20.9769219,24.8196933 21.2835906,24.4489567 C21.8358576,23.7812818 22.7624536,22.5808642 22.9900387,22.1284696 C23.2176236,21.6752016 23.1038311,21.279138 22.9333621,20.9394055 C22.7624536,20.6001096 21.4351674,17.243831 20.8284206,15.9014942 Z"/>
    </g>
  </g>
</svg>
