<svg xmlns="http://www.w3.org/2000/svg" width="23" height="23" viewBox="0 0 23 23">
  <path fill="#FFF" fill-rule="evenodd" d="M15.8125,0 C19.7814375,0 23,3.2185625 23,7.1875 L23,7.1875 L23,15.8125 C23,19.7814375 19.7814375,23 15.8125,23 L15.8125,23 L7.1875,23 C3.2185625,23 0,19.7814375 0,15.8125 L0,15.8125 L0,7.1875 C0,3.2185625 3.2185625,0 7.1875,0 L7.1875,0 Z M15.8125,2.15625 L7.1875,2.15625 C4.413125,2.15625 2.15625,4.413125 2.15625,7.1875 L2.15625,7.1875 L2.15625,15.8125 C2.15625,18.586875 4.413125,20.84375 7.1875,20.84375 L7.1875,20.84375 L15.8125,20.84375 C18.586875,20.84375 20.84375,18.586875 20.84375,15.8125 L20.84375,15.8125 L20.84375,7.1875 C20.84375,4.413125 18.586875,2.15625 15.8125,2.15625 L15.8125,2.15625 Z M10.925,5.75 C14.1004375,5.75 16.675,8.3245625 16.675,11.5 C16.675,14.6754375 14.1004375,17.25 10.925,17.25 C7.7495625,17.25 5.175,14.6754375 5.175,11.5 C5.175,8.3245625 7.7495625,5.75 10.925,5.75 Z M10.925,7.90625 C8.944125,7.90625 7.33125,9.5176875 7.33125,11.5 C7.33125,13.480875 8.944125,15.09375 10.925,15.09375 C12.905875,15.09375 14.51875,13.480875 14.51875,11.5 C14.51875,9.5176875 12.905875,7.90625 10.925,7.90625 Z M17.5375,4.6 C18.0138456,4.6 18.4,4.9861544 18.4,5.4625 C18.4,5.9388456 18.0138456,6.325 17.5375,6.325 C17.0611544,6.325 16.675,5.9388456 16.675,5.4625 C16.675,4.9861544 17.0611544,4.6 17.5375,4.6 Z"/>
</svg>
