<svg xmlns="http://www.w3.org/2000/svg" width="24" height="24" viewBox="0 0 24 24">
  <path fill="#FFF" fill-rule="evenodd" d="M5.24571429,6.99428571 L5.24571429,23.3142857 L1.64313008e-14,23.3142857 L1.64313008e-14,6.99428571 L5.24571429,6.99428571 Z M12.3027366,6.99428571 L12.3027366,10.114373 C12.9496021,9.24496208 14.912453,6.99428571 18.0073184,6.99428571 C18.3693257,6.99428571 18.6779221,7.0343439 18.959813,7.09072208 C19.0325112,7.10259117 19.1037257,7.1159439 19.1749403,7.1322639 C19.2342857,7.1485839 19.2876966,7.16787117 19.3440748,7.18567481 C21.6244239,7.78061299 23.3142857,9.83544935 23.3142857,12.301253 L23.3142857,12.301253 L23.3142857,23.3142857 L18.0073184,23.3142857 L18.0073184,23.3142857 L18.0073184,12.9288312 C16.3144894,8.82509299 12.3027366,14.4124675 12.3027366,14.4124675 L12.3027366,14.4124675 L12.3027366,23.3142857 L6.99428571,23.3142857 L6.99428571,6.99428571 L12.3027366,6.99428571 Z M2.62285714,1.64313008e-14 C4.07142114,1.64313008e-14 5.24571429,1.17429314 5.24571429,2.62285714 C5.24571429,4.07142114 4.07142114,5.24571429 2.62285714,5.24571429 C1.17429314,5.24571429 1.64313008e-14,4.07142114 1.64313008e-14,2.62285714 C1.64313008e-14,1.17429314 1.17429314,1.64313008e-14 2.62285714,1.64313008e-14 Z"/>
</svg>
